<svg xmlns="http://www.w3.org/2000/svg" width="136.9339mm" height="44.90649mm" viewBox="0 0 136.9339 44.90649">
    <path class="color-black" fill="#272c2b" d="M125.763049 14.05678h-23.89964V5.80636h23.89964zm-40.9127 23.37082h5.33436s-.0494.61524.1531 1.30104h-5.60281c.0748-.42298.11535-.85654.11535-1.30104zM54.43738 38.72864c.0744-.42298.11501-.85654.11501-1.30104h15.340539c0 .4445.0409.87806.115 1.30104zm-19.61127 0V37.4276h4.76921c0 .4445.0406.87806.115 1.30104zM134.487589 2.0394h-35.93041s-3.73909.16263-3.73909 3.46851v8.5083h-20.05154V9.78923s.21696-2.87197-4.0647-2.87197h-7.58684s-2.54706.10795-2.54706 3.2512v4.06435H43.65967s.59619-6.99064-4.60693-6.99064c-5.20206 0-4.93077 7.04533-4.93077 7.04533H23.12045V1.76812h-6.28632V14.2875h-5.03992s-3.68516 0-3.68516 4.76849H6.04961s-2.22197.0547-2.22197 2.22215c0 2.16747 2.33055 2.3301 2.33055 2.3301h1.95086v7.15398s-1.35501 2.49272-6.34061 5.25674c0 0 .4083 4.13102 5.28228 4.57588 1.19271 2.5467 3.77723 4.31165 6.7757 4.31165 4.11219 0 7.44788-3.31929 7.47737-7.42421h2.57542v3.1429s0 2.33045 2.65546 2.33045h8.29144V40.5712h5.46171c1.18745 2.55941 3.7786 4.33529 6.78603 4.33529 3.00743 0 5.59823-1.77588 6.78603-4.33529h16.725549c1.1878 2.55941 3.7786 4.33529 6.78639 4.33529 3.00708 0 5.59858-1.77588 6.78603-4.33529h22.86917c1.18745 2.55941 3.77896 4.33529 6.78603 4.33529 3.00743 0 5.59859-1.77588 6.78604-4.33529h7.11482s1.02905 2.70969 5.20206 2.70969V9.89753l4.01038-4.66055s.27128-3.19758-2.43876-3.19758"/>
    <path class="color-train-brown" fill="#ad5800" d="M88.416579 35.65948h-5.33435c0 .44414-.0409.87806-.11571 1.30104h5.60317c-.20285-.6858-.15311-1.30104-.15311-1.30104m-35.632669 0c0 .44414-.0406.87806-.11465 1.30104h15.570549c-.0744-.42298-.11536-.8569-.11536-1.30104H52.78391m-19.72627 0v1.30104h4.88421c-.0744-.42298-.11466-.8569-.11466-1.30104h-4.76955"/>
    <path class="color-train-brown" fill="#ad5800" d="M123.994569 12.28866h-23.89928V4.03789h23.89928zm-40.91234 23.37082h5.33435s-.0497.61524.15311 1.30104h-5.60317c.0748-.42298.11571-.8569.11571-1.30104zM52.66926 36.96052c.0741-.42298.11465-.8569.11465-1.30104h15.340539c0 .44414.0409.87806.11536 1.30104zm-19.61162 0v-1.30104h4.76955c0 .44414.0402.87806.11466 1.30104zM132.719119.27128h-35.93006s-3.73945.16263-3.73945 3.46851v8.5083h-20.05118V8.0211s.21661-2.87196-4.0647-2.87196h-7.58684s-2.547409.10795-2.547409 3.2512v4.06471H41.89155s.59584-6.991-4.60658-6.991c-5.20244 0-4.93127 7.04497-4.93127 7.04497H21.35201V0h-6.28604v12.51902h-5.04006s-3.68526 0-3.68526 4.76885H4.28142s-2.22194.0547-2.22194 2.22215c0 2.16746 2.33027 2.33045 2.33027 2.33045h1.9509v7.15398S4.98574 31.48682 0 34.25048c0 0 .40873 4.13138 5.28232 4.57624 1.19295 2.5467 3.77761 4.31165 6.77566 4.31165 4.11247 0 7.44816-3.31929 7.47765-7.42421h2.57542v3.1429s0 2.33045 2.65518 2.33045h8.29141v-2.38443h5.4617c1.18745 2.55975 3.77896 4.33529 6.78604 4.33529 3.00778 0 5.59893-1.77554 6.78603-4.33529h16.725899c1.1878 2.55975 3.7786 4.33529 6.78639 4.33529 3.00672 0 5.59823-1.77554 6.78568-4.33529h22.86952c1.18745 2.55975 3.7786 4.33529 6.78568 4.33529 3.00814 0 5.59858-1.77554 6.78639-4.33529h7.11482s1.0294 2.70969 5.20206 2.70969V8.12941l4.01038-4.66055s.27093-3.19758-2.43911-3.19758"/>
</svg>
