<svg xmlns="http://www.w3.org/2000/svg" width="603.903987" height="168.143286" viewBox="0 0 159.78293 44.487911">
    <path class="color-black" fill="#272c2b" d="M39.473718 14.2207h-9.06399V8.34025h9.06399zm120.309216 22.16503h-4.39032l-2.032-6.88305h-6.58424V7.59518s-.0811-3.46886-3.46816-3.46886h-3.4283s.2981-2.0253-2.02529-2.0253h-20.69536s-2.13713-.0409-2.13713 2.13713H46.762459s.172509-2.37278-2.315281-2.46803c-.0508-.002-.102658-.002-.155575-.002H26.114516s-3.279598.0815-3.279598 3.27977c0 3.19793 3.239488 3.27978 3.239488 3.27978v5.89315H15.465707v13.65674h-3.698628s-2.073275.16263-2.479498 1.86972V18.48861H7.174054v15.15992l-.691057 1.66716h-4.71456v2.43843h3.860838l-3.860838 6.73379h17.92443v-8.56326h4.502186c-.316266.74041-.491843 1.55579-.491843 2.41155 0 3.39687 2.753325 6.15171 6.15061 6.15171 3.397427 0 6.151385-2.75484 6.151385-6.15171 0-.85576-.176035-1.67114-.492125-2.41155h4.560713c-.316442.74041-.492125 1.55579-.492125 2.41155 0 3.39687 2.754135 6.15171 6.151385 6.15171 3.396543 0 6.151033-2.75484 6.151033-6.15171 0-.85576-.176035-1.67114-.492125-2.41155h4.176887v8.56326h51.429356v-8.56326h4.33952c-.31609.74041-.49177 1.55579-.49177 2.41155 0 3.39687 2.75378 6.15171 6.15103 6.15171 3.3969 0 6.15104-2.75484 6.15104-6.15171 0-.85576-.17569-1.67114-.49177-2.41155h4.56035c-.31644.74041-.49177 1.55579-.49177 2.41155 0 3.39687 2.75378 6.15171 6.15103 6.15171 3.39725 0 6.15104-2.75484 6.15104-6.15171 0-.85576-.17569-1.67114-.49178-2.41155h4.33917v8.56326h15.28233l-1.7339-5.96195h3.36021v-2.14023"/>
    <path class="color-train-gray" fill="#7f7f7f" d="M37.705243 12.45188h-9.063956V6.57213h9.063956zm120.309221 22.16499h-4.38997l-2.03236-6.88192h-6.58389V5.82706s-.0811-3.46886-3.46851-3.46886h-3.42794s.29845-2.02495-2.0253-2.02495h-20.69535s-2.13748-.0409-2.13748 2.13713h-68.25968S45.166493.0976 42.678703.002C42.627903 0 42.576045 0 42.523128 0H24.346359S21.06676.0815 21.06676 3.27907c0 3.19899 3.239206 3.27977 3.239206 3.27977V12.452H13.697549v13.6574H9.998781s-2.073134.1626-2.479393 1.86972V16.71975H5.405614v15.16062l-.690809 1.6666H0v2.43829h3.860836L0 42.71919h17.924568v-8.56231h4.502186c-.316265.74016-.491843 1.5554-.491843 2.41159 0 3.39658 2.753466 6.15072 6.150751 6.15072 3.397144 0 6.151563-2.75414 6.151563-6.15072 0-.85619-.176247-1.67143-.492372-2.41159h4.560465c-.31609.74016-.491773 1.5554-.491773 2.41159 0 3.39658 2.753783 6.15072 6.151033 6.15072 3.396898 0 6.151033-2.75414 6.151033-6.15072 0-.85619-.175683-1.67143-.492125-2.41159h4.177242v8.56231h51.429356v-8.56231h4.33952c-.31644.74016-.49177 1.5554-.49177 2.41159 0 3.39658 2.75378 6.15072 6.15103 6.15072 3.3969 0 6.15104-2.75414 6.15104-6.15072 0-.85619-.17569-1.67143-.49178-2.41159h4.56001c-.31609.74016-.49177 1.5554-.49177 2.41159 0 3.39658 2.75378 6.15072 6.15103 6.15072 3.39725 0 6.15138-2.75414 6.15138-6.15072 0-.85619-.17568-1.67143-.49212-2.41159h4.33952v8.56231h15.28198l-1.7339-5.961h3.36021v-2.14132"/>
</svg>
