<svg xmlns="http://www.w3.org/2000/svg" width="461.498608" height="182.422658" viewBox="0 0 122.10484 48.265995">
    <path class="color-black" fill="#272c2b" d="M116.902076 17.213086h-16.88076V4.531783h16.88076zm-19.97003 0h-10.56746V4.531783h10.56746zm-19.39008 26.0537h-7.87929c.27481-.56127.49142-1.15535.64417-1.77518h6.59024c.15275.61983.36971 1.21391.64488 1.77518zm-31.101596 0c.274815-.56127.491422-1.15535.644525-1.77518h5.912909c.1524.61983.369713 1.21391.644525 1.77518zm75.664476-14.78139h-2.11349V1.768122h-36.68888v9.592024h-22.19219v2.1135H19.733331l1.707092-11.705524h-7.884938l1.38148 11.787014h-3.007432s-3.292123.16263-3.292123 3.29212v12.0717H6.401858v3.17253H4.542367s-.315032-2.33257-1.449917-2.33257-1.323975 2.45887-1.323975 3.90878c0 1.44992.251883 3.38032 1.260827 3.38032 1.008592 0 1.575506-2.24578 1.575506-2.24578h1.79705v6.68937h23.373998c.95885 3.88937 4.468636 6.77439 8.654344 6.77439 2.714977 0 5.14491-1.21497 6.779683-3.12984h9.662229c1.635125 1.91487 4.065413 3.12984 6.780744 3.12984 2.71498 0 5.14491-1.21497 6.77968-3.12984h10.33886c1.63477 1.91487 4.06541 3.12984 6.78039 3.12984 4.18535 0 7.69514-2.88502 8.6547-6.77439h27.89836v-13.00621"/>
    <path class="color-train-green" fill="#00ff0c" d="M115.133606 15.445316h-16.88076V2.763661h16.88076zm-19.97004 0h-10.56746V2.763661h10.56746zm-19.39008 26.05334h-7.87929c.27517-.56127.49177-1.15534.64417-1.77482h6.59025c.1531.61948.37006 1.21355.64487 1.77482zm-31.101591 0c.274815-.56127.491774-1.15534.644525-1.77482h5.912909c.152754.61948.369713 1.21355.644879 1.77482zm75.664821-14.78174h-2.11384V0h-36.68852v9.592027H59.341808v2.113489H17.964856L19.6723 0h-7.88529l1.381832 11.787016h-3.007784s-3.292123.16263-3.292123 3.29212v12.0717H4.633383v3.17253H2.774244s-.315384-2.33257-1.449917-2.33257C.18909 27.990796 0 30.449656 0 31.899576s.252235 3.38032 1.260827 3.38032c1.008946 0 1.575858-2.24543 1.575858-2.24543h1.796698v6.68937h23.37435c.95885 3.88902 4.468636 6.77368 8.654344 6.77368 2.714977 0 5.14491-1.21461 6.779683-3.12913h9.662232c1.63477 1.91452 4.065058 3.12913 6.780384 3.12913 2.71498 0 5.14492-1.21461 6.77969-3.12913h10.33956c1.63407 1.91452 4.06506 3.12913 6.77968 3.12913 4.18571 0 7.6955-2.88466 8.6547-6.77368h27.89871v-13.00692"/>
</svg>
