<svg xmlns="http://www.w3.org/2000/svg" width="347.308052" height="194.922418" viewBox="0 0 91.891922 51.573223">
    <path fill="#272c2b" d="M79.53551 49.621763c-4.00437 0-7.26228-3.25794-7.26228-7.26239h1.9685c0 2.92421 2.37032 5.29389 5.29378 5.29389 2.92348 0 5.29414-2.36968 5.29414-5.29389h1.96814c0 4.00445-3.25754 7.26239-7.26228 7.26239zm-24.9562 0c-4.00438 0-7.26193-3.25794-7.26193-7.26239h1.9685c0 2.92421 2.37032 5.29389 5.29343 5.29389 2.92347 0 5.29379-2.36968 5.29379-5.29389h1.968495c0 4.00445-3.257905 7.26239-7.262285 7.26239zm-26.41882 0c-4.00473 0-7.26228-3.25794-7.26228-7.26239 0-.60001.0744-1.18386.21272-1.74198.73413.21868 1.35432.45656 1.86161.68544-.0691.34079-.10583.69427-.10583 1.05654 0 2.92421 2.37031 5.29389 5.29378 5.29389 2.92312 0 5.29308-2.36968 5.29308-5.29389h1.96885c0 4.00445-3.25755 7.26239-7.26193 7.26239zm61.40132-13.33183v-16.58306h-8.99618s-5.50087-.32526-5.50087-5.77215c0-5.44548 5.55449-5.55519 5.55449-5.55519h5.63633V3.50203H65.879136V6.5913h1.896534v13.332183c-.59549-1.13842-3.414184-1.24707-3.414184-1.24707H55.69021s-.59549-7.04497-2.65465-7.04497c-2.05952 0-2.49309 7.04497-2.49309 7.04497H39.05356c-.54151-4.60587-2.65571-6.01522-2.65571-6.01522v-1.35466h-4.5526v1.30104c-2.22144 2.60068-2.38442 5.90656-2.38442 5.90656H19.6522L21.82001 1.76883h-9.59238l2.4384 16.799633h-1.89688v17.72147H1.76848v6.06944h3.19687s2.60174-2.60064 9.70068-2.60064c1.76107 0 3.27096.15945 4.54766.39962-.17286.70598-.26634 1.44226-.26634 2.20102 0 5.08853 4.12467 9.21385 9.21314 9.21385 5.08776 0 9.21244-4.12532 9.21244-9.21385h7.99359c0 5.08853 4.12468 9.21385 9.21279 9.21385 5.08882 0 9.213145-4.12532 9.213145-9.21385h6.530265c0 5.08853 4.12433 9.21385 9.21279 9.21385 5.08847 0 9.2135-4.12532 9.2135-9.21385h3.14291v-6.06944h-2.33011"/>
    <path fill="red" d="M77.76704 47.853883c-4.00403 0-7.26228-3.25822-7.26228-7.26253h1.96885c0 2.92421 2.36996 5.29414 5.29343 5.29414s5.29414-2.36993 5.29414-5.29414h1.96814c0 4.00431-3.25719 7.26253-7.26228 7.26253zm-24.9562 0c-4.00403 0-7.26193-3.25822-7.26193-7.26253h1.9685c0 2.92421 2.37031 5.29414 5.29343 5.29414 2.92382 0 5.29378-2.36993 5.29378-5.29414h1.96885c0 4.00431-3.2579 7.26253-7.26263 7.26253zm-26.41883 0c-4.00473 0-7.26193-3.25822-7.26193-7.26253 0-.60043.0744-1.1836.21273-1.74212.73413.21911 1.35396.45695 1.86125.68474-.0688.34191-.10548.69469-.10548 1.05738 0 2.92421 2.36997 5.29414 5.29343 5.29414 2.92347 0 5.29308-2.36993 5.29308-5.29414h1.96886c0 4.00431-3.2572 7.26253-7.26194 7.26253zm61.40133-13.3321v-16.58303h-8.99619s-5.50051-.32526-5.50051-5.77145c0-5.446883 5.55519-5.555193 5.55519-5.555193h5.63527V1.73426H64.110661v3.08892h1.896534v13.332173c-.595138-1.13806-3.413832-1.24706-3.413832-1.24706H53.92209s-.59584-7.04498-2.65501-7.04498c-2.05952 0-2.49308 7.04498-2.49308 7.04498H37.28509c-.54152-4.60587-2.65571-6.01522-2.65571-6.01522v-1.35467h-4.5519v1.30034c-2.22214 2.60139-2.38477 5.90727-2.38477 5.90727h-9.80864L20.05154 0h-9.59238l2.43911 16.800343h-1.89724v17.72144H0v6.06957h3.19688s2.60173-2.60145 9.70139-2.60145c1.76071 0 3.27024.16012 4.5473.40114-.17286.70556-.26635 1.44184-.26635 2.20031 0 5.08882 4.12468 9.21315 9.21279 9.21315 5.08777 0 9.21315-4.12433 9.21315-9.21315h7.99289c0 5.08882 4.12503 9.21315 9.21279 9.21315 5.08882 0 9.213492-4.12433 9.213492-9.21315h6.529918c0 5.08882 4.12468 9.21315 9.21279 9.21315 5.08882 0 9.21384-4.12433 9.21384-9.21315h3.14291v-6.06957h-2.33045"/>
</svg>
