<svg xmlns="http://www.w3.org/2000/svg" width="361.3946" height="188.410768" viewBox="0 0 95.618988 49.850349">
    <path class="color-black" fill="#272c2b" d="M62.098049 5.344583h7.15434v14.469535h-7.15434zm8.97115 42.555225c-5.83848 0-10.56923-4.7311-10.56923-10.56745 0-5.83636 4.73075-10.56746 10.56923-10.56746 5.83494 0 10.56569 4.7311 10.56569 10.56746 0 5.83635-4.73075 10.56745-10.56569 10.56745zm.50094-42.555225h10.47043v14.469535h-10.47043zM29.366633 47.899808c-4.445 0-8.048281-3.60291-8.048281-8.04721 0-4.445 3.603281-8.04827 8.048281-8.04827 4.445688 0 8.047566 3.60327 8.047566 8.04827 0 4.4443-3.601878 8.04721-8.047566 8.04721zm62.431776-37.190181h-5.77144V3.231091h-26.01383s-2.032 0-2.032 1.707092c0 1.706739 1.95085 1.829152 1.95085 1.829152v5.974993h-18.33033l-.65263-7.153976h-4.75546l-.73025 7.072486H18.392405l1.178639-8.860716s-.771869-2.032-3.902075-2.032-3.861144 2.032-3.861144 2.032l1.381813 8.738656h-2.926636s-1.666161.0409-1.666161 2.56082v3.37326s-1.788583.73166-1.788583 3.33304 1.951567 3.25155 1.951567 3.25155v3.90173s.04022 1.91029 2.275417 1.91029H13.2715v2.15441H8.231002s-2.154423.0815-2.154423 2.8448v.0413h-2.27576v-1.95124H1.768475v5.77145h2.022104v-1.91029h2.286v.44732s.122079 2.3121 2.113492 2.3121l11.206348-.006c.371131 5.17737 4.700058 9.277 9.970214 9.277 5.274734 0 9.603316-4.10492 9.970186-9.28723l19.63563-.0102c1.42521 5.34705 6.30767 9.29746 12.09675 9.29746 5.7785 0 10.65387-3.93842 12.08969-9.27206 4.09575-.005 9.2075-.0349 9.2075-.0349s3.2526 0 3.2526-3.25226v-22.59826s0-3.983571-3.82058-3.983571"/>
    <path class="color-train-yellow" fill="#ff0" d="M60.330639 3.576813h7.15433v14.469185h-7.15433zm8.9676 42.554875c-5.83494 0-10.56569-4.7311-10.56569-10.56746 0-5.83635 4.73075-10.56781 10.56569-10.56781 5.83848 0 10.56923 4.73146 10.56923 10.56781 0 5.83636-4.73075 10.56746-10.56923 10.56746zm.50448-42.554875h10.47044v14.469185h-10.47044zM27.598158 46.131688c-4.444656 0-8.047937-3.60292-8.047937-8.04721 0-4.445 3.603281-8.04863 8.047937-8.04863 4.44463 0 8.048621 3.60363 8.048621 8.04863 0 4.44429-3.603991 8.04721-8.048621 8.04721zM90.027469 8.941505h-5.77144V1.462969h-26.01031s-2.032 0-2.032 1.707092c0 1.707091 1.95085 1.829152 1.95085 1.829152v5.974998h-18.33385l-.6491-7.153981h-4.755464l-.73025 7.072489H16.6243l1.178269-8.86072S17.0307 0 13.900838 0c-3.13018 0-3.861488 2.031999-3.861488 2.031999l1.381813 8.738659H8.495585s-1.666875.04092-1.666875 2.56046v3.37361s-1.788583.73167-1.788583 3.3334c0 2.60068 1.951223 3.2512 1.951223 3.2512v3.90172s.04056 1.91065 2.27576 1.91065h2.235915v2.15371H6.462527s-2.154423.0819-2.154423 2.8455v.0406h-2.27576v-1.95086H0v5.77144h2.022104v-1.91029h2.286v.44733s.122079 2.31245 2.113862 2.31245l11.205978-.006c.371131 5.17772 4.700058 9.277 9.970214 9.277 5.273305 0 9.604371-4.10492 9.971251-9.28723l19.63562-.0106c1.42169 5.34741 6.30413 9.29781 12.09321 9.29781 5.78204 0 10.65742-3.93841 12.08971-9.27205 4.09575-.005 9.21102-.0349 9.21102-.0349s3.24908 0 3.24908-3.25226v-22.59823s0-3.983569-3.82058-3.983569"/>
</svg>
